<?xml version="1.0" encoding="iso-8859-1"?>
<!-- Generator: Adobe Illustrator 19.0.0, SVG Export Plug-In . SVG Version: 6.00 Build 0)  -->
<svg version="1.1" id="Capa_1" xmlns="http://www.w3.org/2000/svg" xmlns:xlink="http://www.w3.org/1999/xlink" x="0px" y="0px"
	 viewBox="0 0 512 512" style="enable-background:new 0 0 512 512;" xml:space="preserve">
<g>
	<g>
		<g>
			<path d="M486.4,341.333h-93.867v-17.067C458.483,324.193,511.926,270.749,512,204.8
				c-0.074-65.949-53.518-119.393-119.467-119.467H358.4v-25.6h8.533c4.713,0,8.533-3.82,8.533-8.533s-3.82-8.533-8.533-8.533
				h-102.4c-4.713,0-8.533,3.821-8.533,8.533s3.82,8.533,8.533,8.533h8.533v25.6h-153.6C55.16,85.299,2.377,136.199,0.078,200.465
				s46.711,118.808,110.856,123.369v17.499H25.6c-14.138,0-25.6,11.462-25.6,25.6s11.461,25.6,25.6,25.6h8.752
				c-5.645,7.343-8.72,16.338-8.752,25.6c-0.001,2.263,0.898,4.434,2.499,6.035c1.6,1.6,3.771,2.499,6.035,2.499h2.996
				c-1.948,3.987-2.972,8.362-2.996,12.8c0,16.495,13.372,29.867,29.867,29.867c16.495,0,29.867-13.372,29.867-29.867
				c-0.024-4.438-1.048-8.813-2.996-12.8h40.125c-1.948,3.987-2.972,8.362-2.996,12.8c0,16.495,13.372,29.867,29.867,29.867
				c16.495,0,29.867-13.372,29.867-29.867c-0.024-4.438-1.048-8.813-2.996-12.8h2.996c2.263,0.001,4.434-0.898,6.035-2.499
				c1.6-1.6,2.499-3.771,2.499-6.035c-0.032-9.262-3.107-18.257-8.752-25.6h136.971c-5.645,7.343-8.72,16.338-8.752,25.6
				c-0.001,2.263,0.898,4.434,2.499,6.035c1.6,1.6,3.771,2.499,6.035,2.499h2.996c-1.948,3.987-2.972,8.362-2.996,12.8
				c0,16.495,13.372,29.867,29.867,29.867S384,455.962,384,439.467c-0.024-4.438-1.048-8.813-2.996-12.8h40.125
				c-1.948,3.987-2.972,8.362-2.996,12.8c0,16.495,13.372,29.867,29.867,29.867c16.495,0,29.867-13.372,29.867-29.867
				c-0.024-4.438-1.048-8.813-2.996-12.8h2.996c2.263,0.001,4.434-0.898,6.035-2.499c1.6-1.6,2.499-3.771,2.499-6.035
				c-0.032-9.262-3.107-18.257-8.752-25.6h8.752c14.138,0,25.6-11.461,25.6-25.6S500.539,341.333,486.4,341.333z M290.134,59.734
				h51.2v25.6h-51.2V59.734z M17.067,204.8c0.063-56.528,45.872-102.337,102.4-102.4h273.067c56.554,0,102.4,45.846,102.4,102.4
				s-45.846,102.4-102.4,102.4H119.467C62.939,307.137,17.13,261.328,17.067,204.8z M375.467,324.267v17.067H358.4v-17.067H375.467z
				 M341.334,324.267v17.067H281.6v-17.067H341.334z M264.534,324.267v17.067h-17.067v-17.067H264.534z M230.4,324.267v17.067
				h-68.267v-17.067H230.4z M145.067,324.267v17.067H128v-17.067H145.067z M64,452.267c-7.069,0-12.8-5.731-12.8-12.8
				s5.731-12.8,12.8-12.8c7.066,0.008,12.792,5.734,12.8,12.8C76.8,446.536,71.07,452.267,64,452.267z M157.867,452.267
				c-7.069,0-12.8-5.731-12.8-12.8s5.731-12.8,12.8-12.8c7.066,0.008,12.792,5.734,12.8,12.8
				C170.667,446.536,164.936,452.267,157.867,452.267z M44.125,409.6c3.63-10.22,13.296-17.053,24.142-17.067H153.6
				c10.846,0.013,20.511,6.846,24.142,17.067H44.125z M354.134,452.267c-7.069,0-12.8-5.731-12.8-12.8s5.731-12.8,12.8-12.8
				c7.066,0.008,12.792,5.734,12.8,12.8C366.934,446.536,361.203,452.267,354.134,452.267z M448,452.267
				c-7.069,0-12.8-5.731-12.8-12.8s5.731-12.8,12.8-12.8c7.066,0.008,12.792,5.734,12.8,12.8
				C460.8,446.536,455.07,452.267,448,452.267z M334.259,409.6c3.63-10.22,13.296-17.053,24.142-17.067h85.333
				c10.846,0.013,20.511,6.846,24.142,17.067H334.259z M486.4,375.467H25.6c-4.713,0-8.533-3.82-8.533-8.533s3.82-8.533,8.533-8.533
				h460.8c4.711,0.005,8.529,3.822,8.533,8.533C494.929,371.644,491.111,375.462,486.4,375.467z"/>
			<path d="M256,281.6c32.659,0.272,59.378-25.938,59.733-58.596c0-29.979-47.842-85.808-53.3-92.075
				c-1.667-1.778-3.996-2.787-6.433-2.787c-2.438,0-4.766,1.009-6.433,2.787c-5.458,6.266-53.3,62.096-53.3,92.075
				C196.623,255.662,223.342,281.872,256,281.6z M256,149.767c18.658,22.75,42.667,57.329,42.667,73.237
				c-0.625,23.115-19.544,41.528-42.667,41.528s-42.041-18.413-42.667-41.528C213.334,207.117,237.342,172.529,256,149.767z"/>
			<path d="M256,247.467c4.713,0,8.533-3.82,8.533-8.533s-3.82-8.533-8.533-8.533c-4.271,0.236-7.996-2.876-8.525-7.121
				c-0.1-3.062-1.833-5.835-4.542-7.266c-2.709-1.431-5.976-1.3-8.562,0.343c-2.585,1.643-4.091,4.546-3.946,7.606
				C231.235,237.404,242.539,247.792,256,247.467z"/>
		</g>
	</g>
</g>
<g>
</g>
<g>
</g>
<g>
</g>
<g>
</g>
<g>
</g>
<g>
</g>
<g>
</g>
<g>
</g>
<g>
</g>
<g>
</g>
<g>
</g>
<g>
</g>
<g>
</g>
<g>
</g>
<g>
</g>
</svg>
