<?xml version="1.0" encoding="iso-8859-1"?>
<!-- Generator: Adobe Illustrator 19.0.0, SVG Export Plug-In . SVG Version: 6.00 Build 0)  -->
<svg version="1.1" id="Capa_1" xmlns="http://www.w3.org/2000/svg" xmlns:xlink="http://www.w3.org/1999/xlink" x="0px" y="0px"
	 viewBox="0 0 480 480" style="enable-background:new 0 0 480 480;" xml:space="preserve">
<g>
	<g>
		<g>
			<path d="M240,0c-39.764,0-72,32.235-72,72s32.236,72,72,72c39.744-0.048,71.952-32.256,72-72C312,32.235,279.765,0,240,0z
				 M240,128c-30.928,0-56-25.072-56-56s25.072-56,56-56c30.913,0.035,55.965,25.087,56,56C296,102.928,270.928,128,240,128z"/>
			<path d="M240,336c-39.764,0-72,32.235-72,72c0,39.764,32.236,72,72,72c39.744-0.049,71.952-32.256,72-72
				C312,368.235,279.765,336,240,336z M240,464c-30.928,0-56-25.072-56-56c0-30.928,25.072-56,56-56
				c30.913,0.035,55.965,25.087,56,56C296,438.928,270.928,464,240,464z"/>
			<path d="M240,168c-39.764,0-72,32.235-72,72c0,39.764,32.236,72,72,72c39.744-0.049,71.952-32.256,72-72
				C312,200.235,279.765,168,240,168z M240,296c-30.928,0-56-25.072-56-56c0-30.928,25.072-56,56-56
				c30.913,0.035,55.965,25.087,56,56C296,270.928,270.928,296,240,296z"/>
			<path d="M408,144c39.744-0.048,71.952-32.256,72-72c0-39.765-32.235-72-72-72c-39.764,0-72,32.235-72,72S368.236,144,408,144z
				 M408,16c30.913,0.035,55.965,25.087,56,56c0,30.928-25.072,56-56,56c-30.928,0-56-25.072-56-56S377.072,16,408,16z"/>
			<path d="M408,336c-39.764,0-72,32.235-72,72c0,39.764,32.236,72,72,72c39.744-0.049,71.952-32.256,72-72
				C480,368.235,447.765,336,408,336z M408,464c-30.928,0-56-25.072-56-56c0-30.928,25.072-56,56-56
				c30.913,0.035,55.965,25.087,56,56C464,438.928,438.928,464,408,464z"/>
			<path d="M408,168c-39.764,0-72,32.235-72,72c0,39.764,32.236,72,72,72c39.744-0.049,71.952-32.256,72-72
				C480,200.235,447.765,168,408,168z M408,296c-30.928,0-56-25.072-56-56c0-30.928,25.072-56,56-56
				c30.913,0.035,55.965,25.087,56,56C464,270.928,438.928,296,408,296z"/>
			<path d="M72,0C32.235,0,0,32.235,0,72s32.235,72,72,72c39.744-0.048,71.952-32.256,72-72C144,32.235,111.765,0,72,0z M72,128
				c-30.928,0-56-25.072-56-56s25.072-56,56-56c30.913,0.035,55.965,25.087,56,56C128,102.928,102.928,128,72,128z"/>
			<path d="M72,336c-39.765,0-72,32.235-72,72c0,39.764,32.235,72,72,72c39.744-0.049,71.952-32.256,72-72
				C144,368.235,111.765,336,72,336z M72,464c-30.928,0-56-25.072-56-56c0-30.928,25.072-56,56-56c30.913,0.035,55.965,25.087,56,56
				C128,438.928,102.928,464,72,464z"/>
			<path d="M72,168c-39.765,0-72,32.235-72,72c0,39.764,32.235,72,72,72c39.744-0.049,71.952-32.256,72-72
				C144,200.235,111.765,168,72,168z M72,296c-30.928,0-56-25.072-56-56c0-30.928,25.072-56,56-56c30.913,0.035,55.965,25.087,56,56
				C128,270.928,102.928,296,72,296z"/>
		</g>
	</g>
</g>
<g>
</g>
<g>
</g>
<g>
</g>
<g>
</g>
<g>
</g>
<g>
</g>
<g>
</g>
<g>
</g>
<g>
</g>
<g>
</g>
<g>
</g>
<g>
</g>
<g>
</g>
<g>
</g>
<g>
</g>
</svg>
